<svg xmlns="http://www.w3.org/2000/svg" xmlns:xlink="http://www.w3.org/1999/xlink" xmlns:lucid="lucid" width="964" height="1123.5"><g transform="translate(-477.5 221.5)" lucid:page-tab-id="xLs15oSXP1IQ"><path d="M0-500h1500v1500H0z" fill="#fff"/><path d="M900-125.74a39 39 0 0 1 39-39h47a39 39 0 0 1 39 39V-109a39 39 0 0 1-39 39h-47a39 39 0 0 1-39-39z" stroke="#54c45e" stroke-width="3" fill="#fff"/><use xlink:href="#a" transform="matrix(1,0,0,1,905,-159.73684210526307) translate(1.9173177083333286 50.74652777777778)"/><path d="M997.66-184.47c0 19.62-15.74 35.52-35.16 35.52-19.42 0-35.16-15.9-35.16-35.52 0-19.62 15.74-35.53 35.16-35.53 19.42 0 35.16 15.9 35.16 35.53z" stroke="#54c45e" stroke-width="3" fill="#fff"/><path d="M1257.5-125.74a39 39 0 0 1 39-39h47a39 39 0 0 1 39 39V-109a39 39 0 0 1-39 39h-47a39 39 0 0 1-39-39z" stroke="#fc9432" stroke-width="3" fill="#fff"/><use xlink:href="#a" transform="matrix(1,0,0,1,1262.5,-159.73684210526307) translate(1.9173177083333286 50.74652777777778)"/><path d="M1355.16-184.47c0 19.62-15.74 35.52-35.16 35.52-19.42 0-35.16-15.9-35.16-35.52 0-19.62 15.74-35.53 35.16-35.53 19.42 0 35.16 15.9 35.16 35.53z" stroke="#fc9432" stroke-width="3" fill="#fff"/><path d="M840 86a6 6 0 0 1 6-6h228a6 6 0 0 1 6 6v128a6 6 0 0 1-6 6H846a6 6 0 0 1-6-6z" stroke="#54c45e" stroke-width="3" fill-opacity="0"/><use xlink:href="#b" transform="matrix(1,0,0,1,845,85) translate(24.461805555555557 74.34027777777777)"/><use xlink:href="#c" transform="matrix(1,0,0,1,845,85) translate(106.61241319444444 74.34027777777777)"/><use xlink:href="#d" transform="matrix(1,0,0,1,845,85) translate(162.99262152777777 74.34027777777777)"/><path d="M1200 86a6 6 0 0 1 6-6h228a6 6 0 0 1 6 6v128a6 6 0 0 1-6 6h-228a6 6 0 0 1-6-6z" stroke="#fc9432" stroke-width="3" fill-opacity="0"/><use xlink:href="#e" transform="matrix(1,0,0,1,1205,85) translate(66.123046875 74.34027777777777)"/><use xlink:href="#f" transform="matrix(1,0,0,1,1205,85) translate(72.373046875 74.34027777777777)"/><use xlink:href="#d" transform="matrix(1,0,0,1,1205,85) translate(121.33138020833333 74.34027777777777)"/><path d="M928.84 60V49.26m0-10.75V17.04m0-10.74v-21.5m0-10.74v-21.5m0-10.73V-68.9" stroke="#54c45e" stroke-width="2" fill="none"/><path d="M928.84 75.26L924.2 61h9.28z" stroke="#54c45e" stroke-width="2" fill="#54c45e"/><path d="M929.82-69.68v.8h-1.95v-1.27z" stroke="#54c45e" stroke-width=".05" fill="#54c45e"/><use xlink:href="#g" transform="matrix(1,0,0,1,855.7257143679552,-36.719638328333005) translate(0.005000000000002558 21.52777777777778)"/><path d="M1180 150h-8.9m-8.88 0h-17.78m-8.88 0h-17.78m-8.9 0H1100" stroke="#fc9432" stroke-width="2" fill="none"/><path d="M1195.26 150l-14.26 4.63v-9.26zM1084.74 150l14.26-4.63v9.26z" stroke="#fc9432" stroke-width="2" fill="#fc9432"/><use xlink:href="#h" transform="matrix(1,0,0,1,1099.0657552083333,114.47672425104246) translate(0.005000000000002558 21.52777777777778)"/><use xlink:href="#i" transform="matrix(1,0,0,1,1107.4424913194443,154.00000000000003) translate(0.005000000000002558 21.52777777777778)"/><path d="M1320 60V49.37m0-10.62V17.5m0-10.63v-21.25m0-10.62v-21.25m0-10.63V-67.5" stroke="#fc9432" stroke-width="2" fill="none"/><path d="M1320 75.26L1315.37 61h9.27z" stroke="#fc9432" stroke-width="2" fill="#fc9432"/><path d="M1320.97-67.47h-1.94v-1.03h1.94z" stroke="#fc9432" stroke-width=".05" fill="#fc9432"/><path d="M1200 406a6 6 0 0 1 6-6h228a6 6 0 0 1 6 6v128a6 6 0 0 1-6 6h-228a6 6 0 0 1-6-6z" stroke="#ba23f6" stroke-width="3" fill-opacity="0"/><use xlink:href="#j" transform="matrix(1,0,0,1,1205,405) translate(12.488064236111114 74.34027777777777)"/><use xlink:href="#k" transform="matrix(1,0,0,1,1205,405) translate(139.560546875 74.34027777777777)"/><path d="M840 406a6 6 0 0 1 6-6h228a6 6 0 0 1 6 6v128a6 6 0 0 1-6 6H846a6 6 0 0 1-6-6z" stroke="#ba23f6" stroke-width="3" fill-opacity="0"/><use xlink:href="#l" transform="matrix(1,0,0,1,845,405) translate(46.97157118055556 58.09027777777778)"/><use xlink:href="#m" transform="matrix(1,0,0,1,845,405) translate(70.15950520833334 90.35590277777777)"/><path d="M480 406a6 6 0 0 1 6-6h228a6 6 0 0 1 6 6v128a6 6 0 0 1-6 6H486a6 6 0 0 1-6-6z" stroke="#ba23f6" stroke-width="3" fill-opacity="0"/><use xlink:href="#n" transform="matrix(1,0,0,1,485,405) translate(37.10286458333334 58.09027777777778)"/><use xlink:href="#o" transform="matrix(1,0,0,1,485,405) translate(101.27387152777779 58.09027777777778)"/><use xlink:href="#p" transform="matrix(1,0,0,1,485,405) translate(146.73828125 58.09027777777778)"/><use xlink:href="#q" transform="matrix(1,0,0,1,485,405) translate(70.15950520833334 90.35590277777777)"/><path d="M625.82 386.9l-8.8 4.3-.85-1.74 8.8-4.32zm26.34-12.96l-17.56 8.64-.86-1.75 17.56-8.64zM678.5 361l-17.56 8.62-.86-1.75 17.57-8.63zm26.35-12.97l-17.56 8.64-.87-1.75 17.56-8.64zm26.35-12.95l-17.56 8.63-.86-1.74 17.56-8.63zm22.32-11.64h1.35l-14.9 7.32-.85-1.75 14.4-7.07zm56.72-27.22l-3.76 1.85v-1.5h-1.35l4.25-2.1zm26.34-12.95l-17.56 8.63-.86-1.75 17.56-8.63zm26.35-12.96l-17.56 8.65-.86-1.75 17.57-8.64zm26.35-12.94L871.7 266l-.85-1.75 17.57-8.64zm26.34-12.96l-17.56 8.64-.86-1.75 17.56-8.65zm26.35-12.95l-17.57 8.64-.86-1.76 17.57-8.64zm17.56-8.63l-8.78 4.3-.86-1.74 8.77-4.3z" stroke="#54c45e" stroke-width=".05" fill="#54c45e"/><path d="M959.5 222.83l-.64-1.33h3.35z" fill="#54c45e"/><path stroke="#54c45e" stroke-width=".05" fill="#54c45e"/><path d="M617.75 394.94l-14.85 2.13 10.76-10.45z" fill="#54c45e"/><path d="M619.22 395.7l-19.15 2.76 13.87-13.48zm-13.5-.02l10.56-1.52-2.9-5.9z" stroke="#54c45e" stroke-width=".05" fill="#54c45e"/><use xlink:href="#r" transform="matrix(1,0,0,1,753.5243055555555,296.5559895833333) translate(0.004999999999999005 21.52777777777778)"/><path d="M960.98 380H959v-9.17H961zm0-18.33H959v-18.34H961zm0-27.5H959v-.73H961zm0-27.6H959v-18.24H961zm0-27.4H959v-18.34H961zm0-27.5H959v-9.17H961z" stroke="#54c45e" stroke-width=".05" fill="#54c45e"/><path d="M960.98 242.53H959v-1.03H961z" stroke="#54c45e" stroke-width=".05" fill="#54c45e"/><path d="M960 395.26L955.37 381h9.26z" fill="#54c45e"/><path d="M960 398.42l-5.98-18.4h11.96zm-3.3-16.45l3.3 10.14 3.3-10.13z" stroke="#54c45e" stroke-width=".05" fill="#54c45e"/><use xlink:href="#s" transform="matrix(1,0,0,1,876.5798611111111,306.5559895833333) translate(0.0049999999999954525 21.52777777777778)"/><use xlink:href="#t" transform="matrix(1,0,0,1,876.5798611111111,306.5559895833333) translate(75.18946180555555 21.52777777777778)"/><path d="M1303.86 389.4l-.87 1.74-8.7-4.3.87-1.76zm-17.38-8.63l-.87 1.74-17.37-8.62.87-1.75zm-26.07-12.95l-.86 1.74-17.38-8.63.86-1.75zm-26.94-11.2l-2.32-1.16h2.9zm-52.08-28.05h-4.4l-13.04-6.48.86-1.76zm-25.27-12.55l-.86 1.75-17.38-8.63.87-1.75zm-26.06-12.94l-.87 1.74-17.38-8.63.86-1.76zm-26.08-12.95l-.86 1.75-17.4-8.64.88-1.74zm-26.07-12.95l-.88 1.75-17.38-8.63.87-1.75zm-26.08-12.95l-.87 1.75-17.38-8.63.86-1.75zm-26.08-12.95l-.86 1.75-17.4-8.63.88-1.75zm-26.07-12.94l-.87 1.74-17.38-8.63.87-1.75zM973.6 225.4l-.87 1.73-8.7-4.3.88-1.76z" stroke="#54c45e" stroke-width=".05" fill="#54c45e"/><path d="M964.06 222.83l-2.68-1.33h3.34z" fill="#54c45e"/><path stroke="#54c45e" stroke-width=".05" fill="#54c45e"/><path d="M1317.1 397.06l-14.84-2.2 4.13-8.3z" fill="#54c45e"/><path d="M1319.93 398.46l-19.14-2.82 5.3-10.7zm-16.2-4.36l10.55 1.56-7.62-7.46z" stroke="#54c45e" stroke-width=".05" fill="#54c45e"/><use xlink:href="#u" transform="matrix(1,0,0,1,1104.015333589724,328.57089080422435) translate(0.0049999999999954525 21.52777777777778)"/><use xlink:href="#v" transform="matrix(1,0,0,1,1104.015333589724,328.57089080422435) translate(71.93425347222221 21.52777777777778)"/><path d="M480 86a6 6 0 0 1 6-6h228a6 6 0 0 1 6 6v128a6 6 0 0 1-6 6H486a6 6 0 0 1-6-6z" fill-opacity="0"/><path d="M536.67 80h50.66m25.34 0h50.66m25.34 0H714a6 6 0 0 1 6 6v42.67m0 42.66V214a6 6 0 0 1-6 6h-25.33m-25.34 0h-50.66m-25.34 0h-50.66m-25.34 0H486a6 6 0 0 1-6-6v-42.67m0-42.66V86a6 6 0 0 1 6-6h25.33" stroke="#ba23f6" stroke-width="3" fill="none"/><use xlink:href="#w" transform="matrix(1,0,0,1,485,85) translate(38.53500332031251 58.09032083333334)"/><use xlink:href="#x" transform="matrix(1,0,0,1,485,85) translate(69.41071611328125 90.35601036458333)"/><path d="M723 150h15.8m15.83 0h31.62m15.82 0h15.8" stroke="#ba23f6" stroke-width="3" fill="none"/><path d="M723.04 151.47h-1.54v-2.94h1.54z" stroke="#ba23f6" stroke-width=".05" fill="#ba23f6"/><path d="M833.65 150l-14.27 4.63v-9.26z" stroke="#ba23f6" stroke-width="3" fill="#ba23f6"/><use xlink:href="#y" transform="matrix(1,0,0,1,747.1603732638889,119.11197916666667) translate(0.005000000000002558 21.52777777777778)"/><path d="M482.5 700h235M482.56 700H480M717.44 700H720" stroke="#54c45e" stroke-width="5" fill="none"/><path d="M482.5 760h235M482.56 760H480M717.44 760H720" stroke="#fc9432" stroke-width="5" fill="none"/><path d="M482.5 820h235M482.56 820H480M717.44 820H720" stroke="#e08fff" stroke-width="5" fill="none"/><path d="M482.5 880h39.17m39.16 0h78.34m39.16 0h39.17M482.56 880H480M717.44 880H720" stroke="#ba23f6" stroke-width="5" fill="none"/><path d="M740 666a6 6 0 0 1 6-6h228a6 6 0 0 1 6 6v48a6 6 0 0 1-6 6H746a6 6 0 0 1-6-6z" fill="none"/><g><use xlink:href="#b" transform="matrix(1,0,0,1,740,660) translate(29.461805555555557 38.083767361111114)"/><use xlink:href="#c" transform="matrix(1,0,0,1,740,660) translate(111.61241319444444 38.083767361111114)"/><use xlink:href="#d" transform="matrix(1,0,0,1,740,660) translate(167.99262152777777 38.083767361111114)"/></g><path d="M687.34 726a6 6 0 0 1 6-6h228a6 6 0 0 1 6 6v48a6 6 0 0 1-6 6h-228a6 6 0 0 1-6-6z" fill="none"/><g><use xlink:href="#e" transform="matrix(1,0,0,1,687.34375,720) translate(71.123046875 38.083767361111114)"/><use xlink:href="#f" transform="matrix(1,0,0,1,687.34375,720) translate(77.373046875 38.083767361111114)"/><use xlink:href="#d" transform="matrix(1,0,0,1,687.34375,720) translate(126.33138020833333 38.083767361111114)"/></g><path d="M739 786a6 6 0 0 1 6-6h228a6 6 0 0 1 6 6v48a6 6 0 0 1-6 6H745a6 6 0 0 1-6-6z" fill="none"/><g><use xlink:href="#z" transform="matrix(1,0,0,1,739,780) translate(28.4689670138889 38.083767361111114)"/><use xlink:href="#A" transform="matrix(1,0,0,1,739,780) translate(120.35264756944444 38.083767361111114)"/></g><path d="M715 848a6 6 0 0 1 6-6h228a6 6 0 0 1 6 6v48a6 6 0 0 1-6 6H721a6 6 0 0 1-6-6z" fill="none"/><g><use xlink:href="#B" transform="matrix(1,0,0,1,715,842) translate(52.8342013888889 38.083767361111114)"/><use xlink:href="#C" transform="matrix(1,0,0,1,715,842) translate(106.85980902777779 38.083767361111114)"/><use xlink:href="#D" transform="matrix(1,0,0,1,715,842) translate(133.48741319444446 38.083767361111114)"/></g><path d="M991.95 77.5V66.84m0-10.67V34.85m0-10.67V2.86m0-10.67v-21.33m0-10.67v-10.66" stroke="#54c45e" stroke-width="2" fill="none"/><path d="M992.92 78.5h-1.95v-1.03h1.95z" stroke="#54c45e" stroke-width=".05" fill="#54c45e"/><path d="M991.95-65.73l4.63 14.27h-9.27z" stroke="#54c45e" stroke-width="2" fill="#54c45e"/><g><use xlink:href="#E" transform="matrix(1,0,0,1,999.9457126717845,3.78635407132931) translate(0.0049999999999954525 21.52777777777778)"/></g><defs><path d="M180 0v-1490h510c348 0 508 209 508 474 0 266-160 477-507 477H370V0H180zm190-706h312c236 0 327-133 327-310 0-176-91-307-329-307H370v617" id="F"/><path d="M471 26C259 26 90-98 90-318c0-256 228-303 435-329 202-27 287-16 287-108 0-139-79-219-234-219-161 0-248 86-283 164l-173-57c86-203 278-265 451-265 150 0 419 46 419 395V0H815v-152h-12C765-73 660 26 471 26zm31-159c199 0 310-134 310-271v-155c-30 35-226 55-295 64-131 17-246 59-246 186 0 116 97 176 231 176" id="G"/><path d="M538 24C308 24 148-78 108-271l171-41c32 123 123 178 257 178 156 0 256-77 256-169 0-77-54-128-164-154l-186-44c-203-48-300-148-300-305 0-192 176-326 414-326 230 0 351 112 402 269l-163 42c-31-80-94-158-238-158-133 0-233 69-233 162 0 83 57 129 188 160l169 40c203 48 298 149 298 302 0 196-179 339-441 339" id="H"/><path d="M628 24c-324 0-524-230-524-574 0-343 198-582 503-582 237 0 487 146 487 559v75H286c9 234 145 362 343 362 132 0 231-58 273-172l174 48C1024-91 857 24 628 24zM287-650h624c-17-190-120-322-304-322-192 0-309 151-320 322" id="I"/><path d="M338-670V0H158v-1118h173l1 207c72-158 192-221 342-221 226 0 378 139 378 422V0H872v-695c0-172-96-275-252-275-161 0-282 109-282 300" id="J"/><path d="M611 442c-248 0-391-105-460-228l146-94c47 65 117 165 314 165 178 0 307-82 307-266v-224h-17C863-141 792-18 576-18c-268 0-472-195-472-546 0-346 197-568 476-568 216 0 288 133 326 193h17v-179h175V29c0 289-215 413-487 413zm-5-620c203 0 314-146 314-390 0-237-108-403-314-403-213 0-319 180-319 403 0 230 109 390 319 390" id="K"/><path d="M158 0v-1118h174v172h12c41-113 157-188 290-188 26 0 70 2 91 3v181c-11-2-60-10-108-10-161 0-279 109-279 260V0H158" id="L"/><g id="a"><use transform="matrix(0.010850694444444444,0,0,0.010850694444444444,0,0)" xlink:href="#F"/><use transform="matrix(0.010850694444444444,0,0,0.010850694444444444,14.192708333333332,0)" xlink:href="#G"/><use transform="matrix(0.010850694444444444,0,0,0.010850694444444444,26.671006944444443,0)" xlink:href="#H"/><use transform="matrix(0.010850694444444444,0,0,0.010850694444444444,38.400607638888886,0)" xlink:href="#H"/><use transform="matrix(0.010850694444444444,0,0,0.010850694444444444,50.13020833333333,0)" xlink:href="#I"/><use transform="matrix(0.010850694444444444,0,0,0.010850694444444444,63.0859375,0)" xlink:href="#J"/><use transform="matrix(0.010850694444444444,0,0,0.010850694444444444,76.21527777777777,0)" xlink:href="#K"/><use transform="matrix(0.010850694444444444,0,0,0.010850694444444444,89.84375,0)" xlink:href="#I"/><use transform="matrix(0.010850694444444444,0,0,0.010850694444444444,102.79947916666666,0)" xlink:href="#L"/></g><path d="M158 0v-1118h180V0H158zm91-1301c-68 0-125-53-125-119s57-119 125-119c69 0 126 53 126 119s-57 119-126 119" id="M"/><path d="M613 24c-304 0-509-231-509-576 0-350 205-580 509-580 305 0 511 230 511 580 0 345-206 576-511 576zm0-161c226 0 329-195 329-415 0-222-103-419-329-419-223 0-326 196-326 419 0 220 103 415 326 415" id="N"/><path d="M598-1118v154H368v674c0 100 37 144 132 144 23 0 62-6 92-12L629-6c-37 13-88 20-134 20-193 0-307-107-307-290v-688H20v-154h168v-266h180v266h230" id="O"/><path d="M140 405l46-156c120 36 205 19 263-150l32-93L54-1118h197c107 313 237 620 324 950 87-331 219-637 326-950h196L606 167c-68 178-176 259-334 259-64 0-113-12-132-21" id="P"/><g id="b"><use transform="matrix(0.010850694444444444,0,0,0.010850694444444444,0,0)" xlink:href="#F"/><use transform="matrix(0.010850694444444444,0,0,0.010850694444444444,14.192708333333332,0)" xlink:href="#L"/><use transform="matrix(0.010850694444444444,0,0,0.010850694444444444,22.90581597222222,0)" xlink:href="#M"/><use transform="matrix(0.010850694444444444,0,0,0.010850694444444444,28.287760416666664,0)" xlink:href="#N"/><use transform="matrix(0.010850694444444444,0,0,0.010850694444444444,41.61241319444444,0)" xlink:href="#L"/><use transform="matrix(0.010850694444444444,0,0,0.010850694444444444,50.32552083333333,0)" xlink:href="#M"/><use transform="matrix(0.010850694444444444,0,0,0.010850694444444444,55.70746527777778,0)" xlink:href="#O"/><use transform="matrix(0.010850694444444444,0,0,0.010850694444444444,63.41145833333333,0)" xlink:href="#P"/></g><g id="c"><use transform="matrix(0.010850694444444444,0,0,0.010850694444444444,0,0)" xlink:href="#F"/><use transform="matrix(0.010850694444444444,0,0,0.010850694444444444,14.192708333333332,0)" xlink:href="#G"/><use transform="matrix(0.010850694444444444,0,0,0.010850694444444444,26.671006944444443,0)" xlink:href="#H"/><use transform="matrix(0.010850694444444444,0,0,0.010850694444444444,38.400607638888886,0)" xlink:href="#H"/></g><path d="M52 0l541-1490h220L1361 0h-200l-149-416H398L254 0H52zm404-582h497c-103-290-145-390-251-756-108 377-145 460-246 756" id="Q"/><path d="M158 418v-1536h174v179h20c37-59 106-193 324-193 279 0 474 222 474 576 0 356-194 580-473 580-213 0-288-135-325-197h-14v591H158zm492-555c209 0 317-186 317-421 0-232-105-413-317-413-206 0-314 166-314 413 0 249 111 421 314 421" id="R"/><g id="d"><use transform="matrix(0.010850694444444444,0,0,0.010850694444444444,0,0)" xlink:href="#Q"/><use transform="matrix(0.010850694444444444,0,0,0.010850694444444444,15.33203125,0)" xlink:href="#R"/><use transform="matrix(0.010850694444444444,0,0,0.010850694444444444,28.938802083333332,0)" xlink:href="#R"/></g><path d="M98-1322v-168h1126v168H757V0H567v-1322H98" id="S"/><path d="M65 0l393-574-370-544h210c88 136 192 297 267 435 67-142 176-302 264-435h206L661-564 1053 0H844c-94-144-206-310-287-458C484-308 366-142 273 0H65" id="T"/><g id="f"><use transform="matrix(0.010850694444444444,0,0,0.010850694444444444,0,0)" xlink:href="#S"/><use transform="matrix(0.010850694444444444,0,0,0.010850694444444444,12.71701388888889,0)" xlink:href="#G"/><use transform="matrix(0.010850694444444444,0,0,0.010850694444444444,25.1953125,0)" xlink:href="#T"/><use transform="matrix(0.010850694444444444,0,0,0.010850694444444444,37.326388888888886,0)" xlink:href="#M"/></g><path fill="#333" d="M180 0v-1490h528c311 0 458 177 458 395 0 191-114 278-244 313v14c139 9 302 137 302 371 0 225-148 397-499 397H180zm190-168h350c232 0 321-102 321-231 0-149-120-277-311-277H370v508zm0-668h328c160 0 286-101 286-255 0-129-87-231-280-231H370v486" id="U"/><path fill="#333" d="M613 24c-304 0-509-231-509-576 0-350 205-580 509-580 305 0 511 230 511 580 0 345-206 576-511 576zm0-161c226 0 329-195 329-415 0-222-103-419-329-419-223 0-326 196-326 419 0 220 103 415 326 415" id="V"/><path fill="#333" d="M158 0v-1490h180v865h22l478-493h223L593-638 1096 0H865L456-523 338-412V0H158" id="W"/><path fill="#333" d="M538 24C308 24 148-78 108-271l171-41c32 123 123 178 257 178 156 0 256-77 256-169 0-77-54-128-164-154l-186-44c-203-48-300-148-300-305 0-192 176-326 414-326 230 0 351 112 402 269l-163 42c-31-80-94-158-238-158-133 0-233 69-233 162 0 83 57 129 188 160l169 40c203 48 298 149 298 302 0 196-179 339-441 339" id="X"/><g id="g"><use transform="matrix(0.010850694444444444,0,0,0.010850694444444444,0,0)" xlink:href="#U"/><use transform="matrix(0.010850694444444444,0,0,0.010850694444444444,14.539930555555555,0)" xlink:href="#V"/><use transform="matrix(0.010850694444444444,0,0,0.010850694444444444,27.864583333333332,0)" xlink:href="#V"/><use transform="matrix(0.010850694444444444,0,0,0.010850694444444444,41.18923611111111,0)" xlink:href="#W"/><use transform="matrix(0.010850694444444444,0,0,0.010850694444444444,53.385416666666664,0)" xlink:href="#X"/></g><path fill="#333" d="M784 20c-382 0-662-292-662-764 0-473 280-766 662-766s660 293 660 766c0 282-99 499-260 629l192 255h-198L1049-33C969 2 880 20 784 20zm-62-486h198l156 205c112-98 183-261 183-483 0-383-209-590-475-590-268 0-477 208-477 590 0 380 209 588 477 588 54 0 106-9 154-25" id="Y"/><path fill="#333" d="M537 14c-226 0-379-139-379-422v-710h180v695c0 172 97 275 253 275 160 0 281-109 281-300v-670h181V0H879v-209C806-46 684 14 537 14" id="Z"/><path fill="#333" d="M628 24c-324 0-524-230-524-574 0-343 198-582 503-582 237 0 487 146 487 559v75H286c9 234 145 362 343 362 132 0 231-58 273-172l174 48C1024-91 857 24 628 24zM287-650h624c-17-190-120-322-304-322-192 0-309 151-320 322" id="aa"/><path fill="#333" d="M158 0v-1118h174v172h12c41-113 157-188 290-188 26 0 70 2 91 3v181c-11-2-60-10-108-10-161 0-279 109-279 260V0H158" id="ab"/><path fill="#333" d="M158 0v-1118h180V0H158zm91-1301c-68 0-125-53-125-119s57-119 125-119c69 0 126 53 126 119s-57 119-126 119" id="ac"/><g id="h"><use transform="matrix(0.010850694444444444,0,0,0.010850694444444444,0,0)" xlink:href="#Y"/><use transform="matrix(0.010850694444444444,0,0,0.010850694444444444,16.9921875,0)" xlink:href="#Z"/><use transform="matrix(0.010850694444444444,0,0,0.010850694444444444,30.13237847222222,0)" xlink:href="#aa"/><use transform="matrix(0.010850694444444444,0,0,0.010850694444444444,43.088107638888886,0)" xlink:href="#ab"/><use transform="matrix(0.010850694444444444,0,0,0.010850694444444444,51.80121527777778,0)" xlink:href="#ac"/><use transform="matrix(0.010850694444444444,0,0,0.010850694444444444,57.18315972222221,0)" xlink:href="#aa"/><use transform="matrix(0.010850694444444444,0,0,0.010850694444444444,70.13888888888889,0)" xlink:href="#X"/></g><g id="i"><use transform="matrix(0.010850694444444444,0,0,0.010850694444444444,0,0)" xlink:href="#U"/><use transform="matrix(0.010850694444444444,0,0,0.010850694444444444,14.539930555555555,0)" xlink:href="#V"/><use transform="matrix(0.010850694444444444,0,0,0.010850694444444444,27.864583333333332,0)" xlink:href="#V"/><use transform="matrix(0.010850694444444444,0,0,0.010850694444444444,41.18923611111111,0)" xlink:href="#W"/><use transform="matrix(0.010850694444444444,0,0,0.010850694444444444,53.385416666666664,0)" xlink:href="#X"/></g><path d="M180 0v-1490h224l606 953c40 63 108 177 176 312-27-437-7-821-13-1265h190V0h-226C860-448 622-778 356-1262c27 476 11 792 15 1262H180" id="ad"/><path d="M678-1118v154H420V0H240v-964H20v-154h220v-149c0-194 155-293 318-293 85 0 141 18 168 30l-50 154c-19-6-47-17-97-17-111 0-159 58-159 166v109h258" id="ae"/><path d="M613 24c-304 0-509-231-509-576 0-350 205-580 509-580 216 0 392 114 453 309l-173 49c-33-115-133-197-280-197-223 0-326 196-326 419 0 220 103 415 326 415 150 0 252-85 285-206l172 49C1010-95 832 24 613 24" id="af"/><g id="j"><use transform="matrix(0.010850694444444444,0,0,0.010850694444444444,0,0)" xlink:href="#ad"/><use transform="matrix(0.010850694444444444,0,0,0.010850694444444444,16.74262152777778,0)" xlink:href="#N"/><use transform="matrix(0.010850694444444444,0,0,0.010850694444444444,30.06727430555556,0)" xlink:href="#O"/><use transform="matrix(0.010850694444444444,0,0,0.010850694444444444,37.337239583333336,0)" xlink:href="#M"/><use transform="matrix(0.010850694444444444,0,0,0.010850694444444444,42.71918402777778,0)" xlink:href="#ae"/><use transform="matrix(0.010850694444444444,0,0,0.010850694444444444,50.94401041666667,0)" xlink:href="#M"/><use transform="matrix(0.010850694444444444,0,0,0.010850694444444444,56.32595486111112,0)" xlink:href="#af"/><use transform="matrix(0.010850694444444444,0,0,0.010850694444444444,69.23828125,0)" xlink:href="#G"/><use transform="matrix(0.010850694444444444,0,0,0.010850694444444444,81.71657986111111,0)" xlink:href="#O"/><use transform="matrix(0.010850694444444444,0,0,0.010850694444444444,88.98654513888889,0)" xlink:href="#M"/><use transform="matrix(0.010850694444444444,0,0,0.010850694444444444,94.36848958333333,0)" xlink:href="#N"/><use transform="matrix(0.010850694444444444,0,0,0.010850694444444444,107.69314236111111,0)" xlink:href="#J"/></g><path d="M657 26c-323 0-524-166-541-416h195c15 169 171 246 346 246 202 0 356-106 356-265 5-203-294-238-475-293-239-73-380-191-380-389 0-252 224-419 512-419 294 0 499 171 508 396H992c-17-145-151-228-328-228-193 0-321 102-321 242 0 156 175 211 284 241l149 41c160 44 422 134 422 412 0 244-197 432-541 432" id="ag"/><path d="M158 0v-1118h175l1 205c55-151 181-225 313-225 147 0 245 90 285 228 53-141 190-228 352-228 194 0 352 125 352 384V0h-181v-749c0-161-105-225-225-225-151 0-243 103-243 244V0H807v-767c0-124-93-207-219-207-131 0-250 92-250 270V0H158" id="ah"/><g id="k"><use transform="matrix(0.010850694444444444,0,0,0.010850694444444444,0,0)" xlink:href="#ag"/><use transform="matrix(0.010850694444444444,0,0,0.010850694444444444,14.2578125,0)" xlink:href="#P"/><use transform="matrix(0.010850694444444444,0,0,0.010850694444444444,26.74696180555556,0)" xlink:href="#H"/><use transform="matrix(0.010850694444444444,0,0,0.010850694444444444,38.4765625,0)" xlink:href="#O"/><use transform="matrix(0.010850694444444444,0,0,0.010850694444444444,45.5295138888889,0)" xlink:href="#I"/><use transform="matrix(0.010850694444444444,0,0,0.010850694444444444,58.48524305555555,0)" xlink:href="#ah"/></g><path d="M783 20c-382 0-661-292-661-764 0-473 279-766 661-766 302 0 548 182 601 489h-190c-42-204-217-313-411-313-268 0-476 208-476 590 0 381 209 588 476 588 195 0 369-110 411-313h190c-52 303-296 489-601 489" id="ai"/><path d="M370-1490V0H180v-1490h190" id="aj"/><path d="M692-1560L212 224H46l480-1784h166" id="ak"/><g id="l"><use transform="matrix(0.010850694444444444,0,0,0.010850694444444444,0,0)" xlink:href="#F"/><use transform="matrix(0.010850694444444444,0,0,0.010850694444444444,14.192708333333332,0)" xlink:href="#ai"/><use transform="matrix(0.010850694444444444,0,0,0.010850694444444444,30.42534722222222,0)" xlink:href="#aj"/><use transform="matrix(0.010850694444444444,0,0,0.010850694444444444,36.393229166666664,0)" xlink:href="#ak"/><use transform="matrix(0.010850694444444444,0,0,0.010850694444444444,44.401041666666664,0)" xlink:href="#F"/><use transform="matrix(0.010850694444444444,0,0,0.010850694444444444,58.59375,0)" xlink:href="#G"/><use transform="matrix(0.010850694444444444,0,0,0.010850694444444444,70.74652777777777,0)" xlink:href="#P"/><use transform="matrix(0.010850694444444444,0,0,0.010850694444444444,83.23567708333333,0)" xlink:href="#ah"/><use transform="matrix(0.010850694444444444,0,0,0.010850694444444444,102.70182291666666,0)" xlink:href="#I"/><use transform="matrix(0.010850694444444444,0,0,0.010850694444444444,115.65755208333333,0)" xlink:href="#J"/><use transform="matrix(0.010850694444444444,0,0,0.010850694444444444,128.78689236111111,0)" xlink:href="#O"/></g><g id="m"><use transform="matrix(0.010850694444444444,0,0,0.010850694444444444,0,0)" xlink:href="#ag"/><use transform="matrix(0.010850694444444444,0,0,0.010850694444444444,14.2578125,0)" xlink:href="#P"/><use transform="matrix(0.010850694444444444,0,0,0.010850694444444444,26.74696180555556,0)" xlink:href="#H"/><use transform="matrix(0.010850694444444444,0,0,0.010850694444444444,38.4765625,0)" xlink:href="#O"/><use transform="matrix(0.010850694444444444,0,0,0.010850694444444444,45.5295138888889,0)" xlink:href="#I"/><use transform="matrix(0.010850694444444444,0,0,0.010850694444444444,58.48524305555555,0)" xlink:href="#ah"/><use transform="matrix(0.010850694444444444,0,0,0.010850694444444444,77.95138888888889,0)" xlink:href="#H"/></g><path d="M180 0v-1490h901v168H370v510h643v168H370V0H180" id="al"/><path d="M338-1490V0H158v-1490h180" id="am"/><path d="M338-670V0H158v-1490h180v566c73-149 190-208 336-208 226 0 379 139 379 422V0H872v-695c0-172-96-275-252-275-161 0-282 109-282 300" id="an"/><g id="n"><use transform="matrix(0.010850694444444444,0,0,0.010850694444444444,0,0)" xlink:href="#al"/><use transform="matrix(0.010850694444444444,0,0,0.010850694444444444,13.118489583333332,0)" xlink:href="#am"/><use transform="matrix(0.010850694444444444,0,0,0.010850694444444444,18.50043402777778,0)" xlink:href="#M"/><use transform="matrix(0.010850694444444444,0,0,0.010850694444444444,23.88237847222222,0)" xlink:href="#K"/><use transform="matrix(0.010850694444444444,0,0,0.010850694444444444,37.51085069444444,0)" xlink:href="#an"/><use transform="matrix(0.010850694444444444,0,0,0.010850694444444444,50.651041666666664,0)" xlink:href="#O"/></g><path d="M577 24c-279 0-473-224-473-580 0-354 195-576 474-576 218 0 287 134 324 193h14v-551h180V0H922v-173h-20C865-111 790 24 577 24zm27-161c203 0 314-172 314-421 0-247-108-413-314-413-212 0-317 181-317 413 0 235 108 421 317 421" id="ao"/><g id="o"><use transform="matrix(0.010850694444444444,0,0,0.010850694444444444,0,0)" xlink:href="#G"/><use transform="matrix(0.010850694444444444,0,0,0.010850694444444444,12.47829861111111,0)" xlink:href="#J"/><use transform="matrix(0.010850694444444444,0,0,0.010850694444444444,25.60763888888889,0)" xlink:href="#ao"/></g><path d="M180 0v-1490h270l367 940c28 72 75 218 110 339 35-117 81-264 110-339l362-940h271V0h-187c2-448-5-837 7-1287-157 497-311 829-483 1287H842C666-458 514-784 354-1284c12 438 5 843 7 1284H180" id="ap"/><g id="p"><use transform="matrix(0.010850694444444444,0,0,0.010850694444444444,0,0)" xlink:href="#ap"/><use transform="matrix(0.010850694444444444,0,0,0.010850694444444444,20.07378472222222,0)" xlink:href="#G"/><use transform="matrix(0.010850694444444444,0,0,0.010850694444444444,32.55208333333333,0)" xlink:href="#R"/></g><g id="q"><use transform="matrix(0.010850694444444444,0,0,0.010850694444444444,0,0)" xlink:href="#ag"/><use transform="matrix(0.010850694444444444,0,0,0.010850694444444444,14.2578125,0)" xlink:href="#P"/><use transform="matrix(0.010850694444444444,0,0,0.010850694444444444,26.74696180555556,0)" xlink:href="#H"/><use transform="matrix(0.010850694444444444,0,0,0.010850694444444444,38.4765625,0)" xlink:href="#O"/><use transform="matrix(0.010850694444444444,0,0,0.010850694444444444,45.5295138888889,0)" xlink:href="#I"/><use transform="matrix(0.010850694444444444,0,0,0.010850694444444444,58.48524305555555,0)" xlink:href="#ah"/><use transform="matrix(0.010850694444444444,0,0,0.010850694444444444,77.95138888888889,0)" xlink:href="#H"/></g><path fill="#333" d="M763 24c-353 0-583-224-583-531v-983h190v968c0 214 149 370 393 370 243 0 391-156 391-370v-968h190v983c0 307-230 531-581 531" id="aq"/><g id="r"><use transform="matrix(0.010850694444444444,0,0,0.010850694444444444,0,0)" xlink:href="#aq"/><use transform="matrix(0.010850694444444444,0,0,0.010850694444444444,16.536458333333332,0)" xlink:href="#X"/><use transform="matrix(0.010850694444444444,0,0,0.010850694444444444,28.266059027777775,0)" xlink:href="#aa"/><use transform="matrix(0.010850694444444444,0,0,0.010850694444444444,41.22178819444444,0)" xlink:href="#X"/></g><path fill="#333" d="M180 0v-1490h270l367 940c28 72 75 218 110 339 35-117 81-264 110-339l362-940h271V0h-187c2-448-5-837 7-1287-157 497-311 829-483 1287H842C666-458 514-784 354-1284c12 438 5 843 7 1284H180" id="ar"/><path fill="#333" d="M471 26C259 26 90-98 90-318c0-256 228-303 435-329 202-27 287-16 287-108 0-139-79-219-234-219-161 0-248 86-283 164l-173-57c86-203 278-265 451-265 150 0 419 46 419 395V0H815v-152h-12C765-73 660 26 471 26zm31-159c199 0 310-134 310-271v-155c-30 35-226 55-295 64-131 17-246 59-246 186 0 116 97 176 231 176" id="as"/><g id="s"><use transform="matrix(0.010850694444444444,0,0,0.010850694444444444,0,0)" xlink:href="#ar"/><use transform="matrix(0.010850694444444444,0,0,0.010850694444444444,20.07378472222222,0)" xlink:href="#as"/><use transform="matrix(0.010850694444444444,0,0,0.010850694444444444,32.55208333333333,0)" xlink:href="#W"/><use transform="matrix(0.010850694444444444,0,0,0.010850694444444444,44.24913194444444,0)" xlink:href="#aa"/><use transform="matrix(0.010850694444444444,0,0,0.010850694444444444,57.20486111111111,0)" xlink:href="#X"/></g><path fill="#333" d="M180 0v-1490h510c348 0 508 209 508 474 0 266-160 477-507 477H370V0H180zm190-706h312c236 0 327-133 327-310 0-176-91-307-329-307H370v617" id="at"/><path fill="#333" d="M140 405l46-156c120 36 205 19 263-150l32-93L54-1118h197c107 313 237 620 324 950 87-331 219-637 326-950h196L606 167c-68 178-176 259-334 259-64 0-113-12-132-21" id="au"/><path fill="#333" d="M158 0v-1118h175l1 205c55-151 181-225 313-225 147 0 245 90 285 228 53-141 190-228 352-228 194 0 352 125 352 384V0h-181v-749c0-161-105-225-225-225-151 0-243 103-243 244V0H807v-767c0-124-93-207-219-207-131 0-250 92-250 270V0H158" id="av"/><path fill="#333" d="M338-670V0H158v-1118h173l1 207c72-158 192-221 342-221 226 0 378 139 378 422V0H872v-695c0-172-96-275-252-275-161 0-282 109-282 300" id="aw"/><path fill="#333" d="M598-1118v154H368v674c0 100 37 144 132 144 23 0 62-6 92-12L629-6c-37 13-88 20-134 20-193 0-307-107-307-290v-688H20v-154h168v-266h180v266h230" id="ax"/><g id="t"><use transform="matrix(0.010850694444444444,0,0,0.010850694444444444,0,0)" xlink:href="#at"/><use transform="matrix(0.010850694444444444,0,0,0.010850694444444444,14.192708333333332,0)" xlink:href="#as"/><use transform="matrix(0.010850694444444444,0,0,0.010850694444444444,26.345486111111104,0)" xlink:href="#au"/><use transform="matrix(0.010850694444444444,0,0,0.010850694444444444,38.834635416666664,0)" xlink:href="#av"/><use transform="matrix(0.010850694444444444,0,0,0.010850694444444444,58.30078125,0)" xlink:href="#aa"/><use transform="matrix(0.010850694444444444,0,0,0.010850694444444444,71.25651041666667,0)" xlink:href="#aw"/><use transform="matrix(0.010850694444444444,0,0,0.010850694444444444,84.38585069444444,0)" xlink:href="#ax"/></g><path fill="#333" d="M657 26c-323 0-524-166-541-416h195c15 169 171 246 346 246 202 0 356-106 356-265 5-203-294-238-475-293-239-73-380-191-380-389 0-252 224-419 512-419 294 0 499 171 508 396H992c-17-145-151-228-328-228-193 0-321 102-321 242 0 156 175 211 284 241l149 41c160 44 422 134 422 412 0 244-197 432-541 432" id="ay"/><path fill="#333" d="M577 24c-279 0-473-224-473-580 0-354 195-576 474-576 218 0 287 134 324 193h14v-551h180V0H922v-173h-20C865-111 790 24 577 24zm27-161c203 0 314-172 314-421 0-247-108-413-314-413-212 0-317 181-317 413 0 235 108 421 317 421" id="az"/><g id="u"><use transform="matrix(0.010850694444444444,0,0,0.010850694444444444,0,0)" xlink:href="#ay"/><use transform="matrix(0.010850694444444444,0,0,0.010850694444444444,14.2578125,0)" xlink:href="#aa"/><use transform="matrix(0.010850694444444444,0,0,0.010850694444444444,27.213541666666664,0)" xlink:href="#aw"/><use transform="matrix(0.010850694444444444,0,0,0.010850694444444444,40.34288194444444,0)" xlink:href="#az"/><use transform="matrix(0.010850694444444444,0,0,0.010850694444444444,53.94965277777778,0)" xlink:href="#X"/></g><path fill="#333" d="M180 0v-1490h224l606 953c40 63 108 177 176 312-27-437-7-821-13-1265h190V0h-226C860-448 622-778 356-1262c27 476 11 792 15 1262H180" id="aA"/><path fill="#333" d="M678-1118v154H420V0H240v-964H20v-154h220v-149c0-194 155-293 318-293 85 0 141 18 168 30l-50 154c-19-6-47-17-97-17-111 0-159 58-159 166v109h258" id="aB"/><path fill="#333" d="M613 24c-304 0-509-231-509-576 0-350 205-580 509-580 216 0 392 114 453 309l-173 49c-33-115-133-197-280-197-223 0-326 196-326 419 0 220 103 415 326 415 150 0 252-85 285-206l172 49C1010-95 832 24 613 24" id="aC"/><g id="v"><use transform="matrix(0.010850694444444444,0,0,0.010850694444444444,0,0)" xlink:href="#aA"/><use transform="matrix(0.010850694444444444,0,0,0.010850694444444444,16.74262152777778,0)" xlink:href="#V"/><use transform="matrix(0.010850694444444444,0,0,0.010850694444444444,30.06727430555556,0)" xlink:href="#ax"/><use transform="matrix(0.010850694444444444,0,0,0.010850694444444444,37.337239583333336,0)" xlink:href="#ac"/><use transform="matrix(0.010850694444444444,0,0,0.010850694444444444,42.71918402777778,0)" xlink:href="#aB"/><use transform="matrix(0.010850694444444444,0,0,0.010850694444444444,50.94401041666667,0)" xlink:href="#ac"/><use transform="matrix(0.010850694444444444,0,0,0.010850694444444444,56.32595486111112,0)" xlink:href="#aC"/><use transform="matrix(0.010850694444444444,0,0,0.010850694444444444,69.23828125,0)" xlink:href="#as"/><use transform="matrix(0.010850694444444444,0,0,0.010850694444444444,81.71657986111111,0)" xlink:href="#ax"/><use transform="matrix(0.010850694444444444,0,0,0.010850694444444444,88.98654513888889,0)" xlink:href="#ac"/><use transform="matrix(0.010850694444444444,0,0,0.010850694444444444,94.36848958333333,0)" xlink:href="#V"/><use transform="matrix(0.010850694444444444,0,0,0.010850694444444444,107.69314236111111,0)" xlink:href="#aw"/><use transform="matrix(0.010850694444444444,0,0,0.010850694444444444,120.82248263888887,0)" xlink:href="#X"/></g><path d="M481 0L54-1118h197c107 314 236 620 325 951 87-331 217-637 324-951h197L670 0H481" id="aD"/><g id="w"><use transform="matrix(0.010850716145833333,0,0,0.010850716145833333,0,0)" xlink:href="#Q"/><use transform="matrix(0.010850716145833333,0,0,0.010850716145833333,15.3320619140625,0)" xlink:href="#ao"/><use transform="matrix(0.010850716145833333,0,0,0.010850716145833333,29.047367122395833,0)" xlink:href="#aD"/><use transform="matrix(0.010850716145833333,0,0,0.010850716145833333,41.102512760416666,0)" xlink:href="#I"/><use transform="matrix(0.010850716145833333,0,0,0.010850716145833333,54.05826783854167,0)" xlink:href="#L"/><use transform="matrix(0.010850716145833333,0,0,0.010850716145833333,62.77139290364583,0)" xlink:href="#O"/><use transform="matrix(0.010850716145833333,0,0,0.010850716145833333,70.04137272135416,0)" xlink:href="#M"/><use transform="matrix(0.010850716145833333,0,0,0.010850716145833333,75.4233279296875,0)" xlink:href="#H"/><use transform="matrix(0.010850716145833333,0,0,0.010850716145833333,87.15295208333333,0)" xlink:href="#I"/><use transform="matrix(0.010850716145833333,0,0,0.010850716145833333,100.10870716145833,0)" xlink:href="#ah"/><use transform="matrix(0.010850716145833333,0,0,0.010850716145833333,119.57489192708333,0)" xlink:href="#I"/><use transform="matrix(0.010850716145833333,0,0,0.010850716145833333,132.53064700520832,0)" xlink:href="#J"/><use transform="matrix(0.010850716145833333,0,0,0.010850716145833333,145.66001354166664,0)" xlink:href="#O"/></g><g id="x"><use transform="matrix(0.010850716145833333,0,0,0.010850716145833333,0,0)" xlink:href="#ag"/><use transform="matrix(0.010850716145833333,0,0,0.010850716145833333,14.257841015624999,0)" xlink:href="#I"/><use transform="matrix(0.010850716145833333,0,0,0.010850716145833333,27.21359609375,0)" xlink:href="#L"/><use transform="matrix(0.010850716145833333,0,0,0.010850716145833333,35.926721158854164,0)" xlink:href="#aD"/><use transform="matrix(0.010850716145833333,0,0,0.010850716145833333,48.41589544270833,0)" xlink:href="#M"/><use transform="matrix(0.010850716145833333,0,0,0.010850716145833333,53.797850651041664,0)" xlink:href="#af"/><use transform="matrix(0.010850716145833333,0,0,0.010850716145833333,66.49318854166667,0)" xlink:href="#I"/><use transform="matrix(0.010850716145833333,0,0,0.010850716145833333,79.44894361979166,0)" xlink:href="#H"/></g><g id="y"><use transform="matrix(0.010850694444444444,0,0,0.010850694444444444,0,0)" xlink:href="#ay"/><use transform="matrix(0.010850694444444444,0,0,0.010850694444444444,14.2578125,0)" xlink:href="#aa"/><use transform="matrix(0.010850694444444444,0,0,0.010850694444444444,27.213541666666664,0)" xlink:href="#aw"/><use transform="matrix(0.010850694444444444,0,0,0.010850694444444444,40.34288194444444,0)" xlink:href="#az"/><use transform="matrix(0.010850694444444444,0,0,0.010850694444444444,53.94965277777778,0)" xlink:href="#X"/></g><path d="M180 0v-1490h908v168H370v486h669v168H370v500h727V0H180" id="aE"/><g id="z"><use transform="matrix(0.010850694444444444,0,0,0.010850694444444444,0,0)" xlink:href="#aE"/><use transform="matrix(0.010850694444444444,0,0,0.010850694444444444,13.35720486111111,0)" xlink:href="#T"/><use transform="matrix(0.010850694444444444,0,0,0.010850694444444444,25.92230902777778,0)" xlink:href="#O"/><use transform="matrix(0.010850694444444444,0,0,0.010850694444444444,32.975260416666664,0)" xlink:href="#I"/><use transform="matrix(0.010850694444444444,0,0,0.010850694444444444,45.93098958333333,0)" xlink:href="#L"/><use transform="matrix(0.010850694444444444,0,0,0.010850694444444444,54.64409722222221,0)" xlink:href="#J"/><use transform="matrix(0.010850694444444444,0,0,0.010850694444444444,67.77343749999999,0)" xlink:href="#G"/><use transform="matrix(0.010850694444444444,0,0,0.010850694444444444,80.2517361111111,0)" xlink:href="#am"/></g><g id="A"><use transform="matrix(0.010850694444444444,0,0,0.010850694444444444,0,0)" xlink:href="#ag"/><use transform="matrix(0.010850694444444444,0,0,0.010850694444444444,14.2578125,0)" xlink:href="#I"/><use transform="matrix(0.010850694444444444,0,0,0.010850694444444444,27.213541666666664,0)" xlink:href="#L"/><use transform="matrix(0.010850694444444444,0,0,0.010850694444444444,35.92664930555555,0)" xlink:href="#aD"/><use transform="matrix(0.010850694444444444,0,0,0.010850694444444444,48.41579861111111,0)" xlink:href="#M"/><use transform="matrix(0.010850694444444444,0,0,0.010850694444444444,53.79774305555556,0)" xlink:href="#af"/><use transform="matrix(0.010850694444444444,0,0,0.010850694444444444,66.49305555555554,0)" xlink:href="#I"/><use transform="matrix(0.010850694444444444,0,0,0.010850694444444444,79.44878472222221,0)" xlink:href="#H"/></g><g id="B"><use transform="matrix(0.010850694444444444,0,0,0.010850694444444444,0,0)" xlink:href="#ad"/><use transform="matrix(0.010850694444444444,0,0,0.010850694444444444,16.74262152777778,0)" xlink:href="#M"/><use transform="matrix(0.010850694444444444,0,0,0.010850694444444444,22.12456597222222,0)" xlink:href="#af"/><use transform="matrix(0.010850694444444444,0,0,0.010850694444444444,34.81987847222222,0)" xlink:href="#I"/></g><g id="C"><use transform="matrix(0.010850694444444444,0,0,0.010850694444444444,0,0)" xlink:href="#O"/><use transform="matrix(0.010850694444444444,0,0,0.010850694444444444,7.052951388888888,0)" xlink:href="#N"/></g><path d="M180 0v-1490h190v644h782v-644h190V0h-190v-678H370V0H180" id="aF"/><g id="D"><use transform="matrix(0.010850694444444444,0,0,0.010850694444444444,0,0)" xlink:href="#aF"/><use transform="matrix(0.010850694444444444,0,0,0.010850694444444444,16.514756944444443,0)" xlink:href="#G"/><use transform="matrix(0.010850694444444444,0,0,0.010850694444444444,28.66753472222222,0)" xlink:href="#aD"/><use transform="matrix(0.010850694444444444,0,0,0.010850694444444444,40.72265625,0)" xlink:href="#I"/></g><g id="E"><use transform="matrix(0.010850694444444444,0,0,0.010850694444444444,0,0)" xlink:href="#aA"/><use transform="matrix(0.010850694444444444,0,0,0.010850694444444444,16.74262152777778,0)" xlink:href="#V"/><use transform="matrix(0.010850694444444444,0,0,0.010850694444444444,30.06727430555556,0)" xlink:href="#ax"/><use transform="matrix(0.010850694444444444,0,0,0.010850694444444444,37.337239583333336,0)" xlink:href="#ac"/><use transform="matrix(0.010850694444444444,0,0,0.010850694444444444,42.71918402777778,0)" xlink:href="#aB"/><use transform="matrix(0.010850694444444444,0,0,0.010850694444444444,50.94401041666667,0)" xlink:href="#ac"/><use transform="matrix(0.010850694444444444,0,0,0.010850694444444444,56.32595486111112,0)" xlink:href="#aC"/><use transform="matrix(0.010850694444444444,0,0,0.010850694444444444,69.23828125,0)" xlink:href="#as"/><use transform="matrix(0.010850694444444444,0,0,0.010850694444444444,81.71657986111111,0)" xlink:href="#ax"/><use transform="matrix(0.010850694444444444,0,0,0.010850694444444444,88.98654513888889,0)" xlink:href="#ac"/><use transform="matrix(0.010850694444444444,0,0,0.010850694444444444,94.36848958333333,0)" xlink:href="#V"/><use transform="matrix(0.010850694444444444,0,0,0.010850694444444444,107.69314236111111,0)" xlink:href="#aw"/><use transform="matrix(0.010850694444444444,0,0,0.010850694444444444,120.82248263888887,0)" xlink:href="#X"/></g></defs></g></svg>